<?xml version="1.0" encoding="UTF-8" standalone="no"?>
<!DOCTYPE svg PUBLIC "-//W3C//DTD SVG 1.1//EN"
 "http://www.w3.org/Graphics/SVG/1.1/DTD/svg11.dtd">
<!-- Generated by graphviz version 14.0.0 (20250921.2048)
 -->
<!-- Title: dependency&#45;cruiser output Pages: 1 -->
<svg width="445pt" height="210pt"
 viewBox="0.00 0.00 445.00 210.00" xmlns="http://www.w3.org/2000/svg" xmlns:xlink="http://www.w3.org/1999/xlink">
<g id="graph0" class="graph" transform="scale(1 1) rotate(0) translate(4 206)">
<title>dependency&#45;cruiser output</title>
<polygon fill="white" stroke="none" points="-4,4 -4,-206 440.75,-206 440.75,4 -4,4"/>
<g id="clust1" class="cluster">
<title>cluster_src</title>
<path fill="#ffffff" stroke="black" stroke-width="2" d="M20,-8C20,-8 416.75,-8 416.75,-8 422.75,-8 428.75,-14 428.75,-20 428.75,-20 428.75,-182 428.75,-182 428.75,-188 422.75,-194 416.75,-194 416.75,-194 20,-194 20,-194 14,-194 8,-188 8,-182 8,-182 8,-20 8,-20 8,-14 14,-8 20,-8"/>
<text xml:space="preserve" text-anchor="middle" x="218.38" y="-181.45" font-family="Helvetica,sans-Serif" font-weight="bold" font-size="9.00">src</text>
</g>
<g id="clust2" class="cluster">
<title>cluster_src/engine</title>
<path fill="#ffffff" stroke="black" stroke-width="2" d="M242.75,-106C242.75,-106 289,-106 289,-106 295,-106 301,-112 301,-118 301,-118 301,-146 301,-146 301,-152 295,-158 289,-158 289,-158 242.75,-158 242.75,-158 236.75,-158 230.75,-152 230.75,-146 230.75,-146 230.75,-118 230.75,-118 230.75,-112 236.75,-106 242.75,-106"/>
<text xml:space="preserve" text-anchor="middle" x="265.88" y="-145.45" font-family="Helvetica,sans-Serif" font-weight="bold" font-size="9.00">engine</text>
</g>
<g id="clust3" class="cluster">
<title>cluster_src/renderer</title>
<path fill="#ffffff" stroke="black" stroke-width="2" d="M28,-16C28,-16 408.75,-16 408.75,-16 414.75,-16 420.75,-22 420.75,-28 420.75,-28 420.75,-86 420.75,-86 420.75,-92 414.75,-98 408.75,-98 408.75,-98 28,-98 28,-98 22,-98 16,-92 16,-86 16,-86 16,-28 16,-28 16,-22 22,-16 28,-16"/>
<text xml:space="preserve" text-anchor="middle" x="218.38" y="-85.45" font-family="Helvetica,sans-Serif" font-weight="bold" font-size="9.00">renderer</text>
</g>
<g id="clust4" class="cluster">
<title>cluster_src/utils</title>
<path fill="#ffffff" stroke="black" stroke-width="2" d="M344.12,-111C344.12,-111 400.88,-111 400.88,-111 406.88,-111 412.88,-117 412.88,-123 412.88,-123 412.88,-151 412.88,-151 412.88,-157 406.88,-163 400.88,-163 400.88,-163 344.12,-163 344.12,-163 338.12,-163 332.12,-157 332.12,-151 332.12,-151 332.12,-123 332.12,-123 332.12,-117 338.12,-111 344.12,-111"/>
<text xml:space="preserve" text-anchor="middle" x="372.5" y="-150.45" font-family="Helvetica,sans-Serif" font-weight="bold" font-size="9.00">utils</text>
</g>
<!-- src/engine/entities.ts -->
<g id="node1" class="node">
<title>src/engine/entities.ts</title>
<g id="a_node1"><a xlink:href="src/engine/entities.ts" xlink:title="entities.ts">
<path fill="#ddfeff" stroke="black" d="M287.08,-131.88C287.08,-131.88 244.67,-131.88 244.67,-131.88 241.71,-131.88 238.75,-128.92 238.75,-125.96 238.75,-125.96 238.75,-120.04 238.75,-120.04 238.75,-117.08 241.71,-114.12 244.67,-114.12 244.67,-114.12 287.08,-114.12 287.08,-114.12 290.04,-114.12 293,-117.08 293,-120.04 293,-120.04 293,-125.96 293,-125.96 293,-128.92 290.04,-131.88 287.08,-131.88"/>
<text xml:space="preserve" text-anchor="start" x="246.75" y="-119.33" font-family="Helvetica,sans-Serif" font-size="9.00">entities.ts</text>
</a>
</g>
</g>
<!-- src/utils/math&#45;utils.ts -->
<g id="node2" class="node">
<title>src/utils/math&#45;utils.ts</title>
<g id="a_node2"><a xlink:href="src/utils/math-utils.ts" xlink:title="math&#45;utils.ts">
<path fill="#ddfeff" stroke="black" d="M398.96,-136.88C398.96,-136.88 346.04,-136.88 346.04,-136.88 343.08,-136.88 340.12,-133.92 340.12,-130.96 340.12,-130.96 340.12,-125.04 340.12,-125.04 340.12,-122.08 343.08,-119.12 346.04,-119.12 346.04,-119.12 398.96,-119.12 398.96,-119.12 401.92,-119.12 404.88,-122.08 404.88,-125.04 404.88,-125.04 404.88,-130.96 404.88,-130.96 404.88,-133.92 401.92,-136.88 398.96,-136.88"/>
<text xml:space="preserve" text-anchor="start" x="348.12" y="-124.33" font-family="Helvetica,sans-Serif" font-size="9.00">math&#45;utils.ts</text>
</a>
</g>
</g>
<!-- src/engine/entities.ts&#45;&gt;src/utils/math&#45;utils.ts -->
<g id="edge1" class="edge">
<title>src/engine/entities.ts&#45;&gt;src/utils/math&#45;utils.ts</title>
<path fill="none" stroke="#000000" stroke-width="2" stroke-opacity="0.200000" d="M293.28,-124.26C304.67,-124.81 318.27,-125.46 330.9,-126.06"/>
<polygon fill="#000000" fill-opacity="0.200000" stroke="#000000" stroke-width="2" stroke-opacity="0.200000" points="330.77,-128.16 336.86,-126.34 330.97,-123.96 330.77,-128.16"/>
</g>
<!-- src/renderer/gpu&#45;buffer&#45;manager.ts -->
<g id="node3" class="node">
<title>src/renderer/gpu&#45;buffer&#45;manager.ts</title>
<g id="a_node3"><a xlink:href="src/renderer/gpu-buffer-manager.ts" xlink:title="gpu&#45;buffer&#45;manager.ts">
<path fill="#ddfeff" stroke="black" d="M313.33,-53.88C313.33,-53.88 218.42,-53.88 218.42,-53.88 215.46,-53.88 212.5,-50.92 212.5,-47.96 212.5,-47.96 212.5,-42.04 212.5,-42.04 212.5,-39.08 215.46,-36.12 218.42,-36.12 218.42,-36.12 313.33,-36.12 313.33,-36.12 316.29,-36.12 319.25,-39.08 319.25,-42.04 319.25,-42.04 319.25,-47.96 319.25,-47.96 319.25,-50.92 316.29,-53.88 313.33,-53.88"/>
<text xml:space="preserve" text-anchor="start" x="220.5" y="-41.33" font-family="Helvetica,sans-Serif" font-size="9.00">gpu&#45;buffer&#45;manager.ts</text>
</a>
</g>
</g>
<!-- src/renderer/mesh&#45;registry.ts -->
<g id="node4" class="node">
<title>src/renderer/mesh&#45;registry.ts</title>
<g id="a_node4"><a xlink:href="src/renderer/mesh-registry.ts" xlink:title="mesh&#45;registry.ts">
<path fill="#ddfeff" stroke="black" d="M406.83,-60.88C406.83,-60.88 338.17,-60.88 338.17,-60.88 335.21,-60.88 332.25,-57.92 332.25,-54.96 332.25,-54.96 332.25,-49.04 332.25,-49.04 332.25,-46.08 335.21,-43.12 338.17,-43.12 338.17,-43.12 406.83,-43.12 406.83,-43.12 409.79,-43.12 412.75,-46.08 412.75,-49.04 412.75,-49.04 412.75,-54.96 412.75,-54.96 412.75,-57.92 409.79,-60.88 406.83,-60.88"/>
<text xml:space="preserve" text-anchor="start" x="340.25" y="-48.33" font-family="Helvetica,sans-Serif" font-size="9.00">mesh&#45;registry.ts</text>
</a>
</g>
</g>
<!-- src/renderer/gpu&#45;buffer&#45;manager.ts&#45;&gt;src/renderer/mesh&#45;registry.ts -->
<g id="edge2" class="edge">
<title>src/renderer/gpu&#45;buffer&#45;manager.ts&#45;&gt;src/renderer/mesh&#45;registry.ts</title>
<path fill="none" stroke="#000000" stroke-width="2" stroke-opacity="0.200000" d="M319.49,-48.52C320.67,-48.6 321.84,-48.68 323.01,-48.76"/>
<polygon fill="#000000" fill-opacity="0.200000" stroke="#000000" stroke-width="2" stroke-opacity="0.200000" points="322.75,-50.84 328.88,-49.15 323.03,-46.65 322.75,-50.84"/>
</g>
<!-- src/renderer/main.ts -->
<g id="node5" class="node">
<title>src/renderer/main.ts</title>
<g id="a_node5"><a xlink:href="src/renderer/main.ts" xlink:title="main.ts">
<path fill="#ddfeff" stroke="black" d="M78.58,-71.88C78.58,-71.88 36.42,-71.88 36.42,-71.88 33.46,-71.88 30.5,-68.92 30.5,-65.96 30.5,-65.96 30.5,-60.04 30.5,-60.04 30.5,-57.08 33.46,-54.12 36.42,-54.12 36.42,-54.12 78.58,-54.12 78.58,-54.12 81.54,-54.12 84.5,-57.08 84.5,-60.04 84.5,-60.04 84.5,-65.96 84.5,-65.96 84.5,-68.92 81.54,-71.88 78.58,-71.88"/>
<text xml:space="preserve" text-anchor="start" x="42.88" y="-59.33" font-family="Helvetica,sans-Serif" font-size="9.00">main.ts</text>
</a>
</g>
</g>
<!-- src/renderer/main.ts&#45;&gt;src/utils/math&#45;utils.ts -->
<g id="edge3" class="edge">
<title>src/renderer/main.ts&#45;&gt;src/utils/math&#45;utils.ts</title>
<path fill="none" stroke="#000000" stroke-width="2" stroke-opacity="0.200000" d="M68.3,-72.16C91.28,-92.93 151.34,-143.19 212.5,-161 258.05,-174.26 273.68,-174.19 319.25,-161 331.77,-157.38 344.18,-149.76 353.76,-142.75"/>
<polygon fill="#000000" fill-opacity="0.200000" stroke="#000000" stroke-width="2" stroke-opacity="0.200000" points="354.91,-144.52 358.38,-139.2 352.35,-141.19 354.91,-144.52"/>
</g>
<!-- src/renderer/webgpu.renderer.ts -->
<g id="node6" class="node">
<title>src/renderer/webgpu.renderer.ts</title>
<g id="a_node6"><a xlink:href="src/renderer/webgpu.renderer.ts" xlink:title="webgpu.renderer.ts">
<path fill="#ddfeff" stroke="black" d="M193.58,-71.88C193.58,-71.88 109.92,-71.88 109.92,-71.88 106.96,-71.88 104,-68.92 104,-65.96 104,-65.96 104,-60.04 104,-60.04 104,-57.08 106.96,-54.12 109.92,-54.12 109.92,-54.12 193.58,-54.12 193.58,-54.12 196.54,-54.12 199.5,-57.08 199.5,-60.04 199.5,-60.04 199.5,-65.96 199.5,-65.96 199.5,-68.92 196.54,-71.88 193.58,-71.88"/>
<text xml:space="preserve" text-anchor="start" x="112" y="-59.33" font-family="Helvetica,sans-Serif" font-size="9.00">webgpu.renderer.ts</text>
</a>
</g>
</g>
<!-- src/renderer/main.ts&#45;&gt;src/renderer/webgpu.renderer.ts -->
<g id="edge4" class="edge">
<title>src/renderer/main.ts&#45;&gt;src/renderer/webgpu.renderer.ts</title>
<path fill="none" stroke="#000000" stroke-width="2" stroke-opacity="0.200000" d="M84.69,-63C87.95,-63 91.38,-63 94.88,-63"/>
<polygon fill="#000000" fill-opacity="0.200000" stroke="#000000" stroke-width="2" stroke-opacity="0.200000" points="94.69,-65.1 100.69,-63 94.69,-60.9 94.69,-65.1"/>
</g>
<!-- src/renderer/webgpu.renderer.ts&#45;&gt;src/engine/entities.ts -->
<g id="edge6" class="edge">
<title>src/renderer/webgpu.renderer.ts&#45;&gt;src/engine/entities.ts</title>
<path fill="none" stroke="#000000" stroke-opacity="0.200000" d="M165.66,-72.11C177.51,-80.25 195.73,-92.22 212.5,-101 219.12,-104.46 226.41,-107.8 233.39,-110.79"/>
<polygon fill="none" stroke="#000000" stroke-opacity="0.200000" points="232.49,-112.69 238.83,-113.07 234.11,-108.81 232.49,-112.69"/>
</g>
<!-- src/renderer/webgpu.renderer.ts&#45;&gt;src/renderer/gpu&#45;buffer&#45;manager.ts -->
<g id="edge7" class="edge">
<title>src/renderer/webgpu.renderer.ts&#45;&gt;src/renderer/gpu&#45;buffer&#45;manager.ts</title>
<path fill="none" stroke="#000000" stroke-width="2" stroke-opacity="0.200000" d="M199.98,-55.42C201.12,-55.23 202.27,-55.05 203.42,-54.87"/>
<polygon fill="#000000" fill-opacity="0.200000" stroke="#000000" stroke-width="2" stroke-opacity="0.200000" points="203.71,-56.95 209.3,-53.92 203.04,-52.8 203.71,-56.95"/>
</g>
<!-- src/renderer/webgpu.renderer.ts&#45;&gt;src/renderer/mesh&#45;registry.ts -->
<g id="edge8" class="edge">
<title>src/renderer/webgpu.renderer.ts&#45;&gt;src/renderer/mesh&#45;registry.ts</title>
<path fill="none" stroke="#000000" stroke-width="2" stroke-opacity="0.200000" d="M199.84,-63.83C233.23,-64.01 279.06,-63.42 319.25,-60 320.54,-59.89 321.84,-59.77 323.15,-59.64"/>
<polygon fill="#000000" fill-opacity="0.200000" stroke="#000000" stroke-width="2" stroke-opacity="0.200000" points="323.18,-61.75 328.9,-58.98 322.7,-57.57 323.18,-61.75"/>
</g>
<!-- src/renderer/mesh&#45;utils.ts -->
<g id="node7" class="node">
<title>src/renderer/mesh&#45;utils.ts</title>
<g id="a_node7"><a xlink:href="src/renderer/mesh-utils.ts" xlink:title="mesh&#45;utils.ts">
<path fill="#ddfeff" stroke="black" d="M85.08,-41.88C85.08,-41.88 29.92,-41.88 29.92,-41.88 26.96,-41.88 24,-38.92 24,-35.96 24,-35.96 24,-30.04 24,-30.04 24,-27.08 26.96,-24.12 29.92,-24.12 29.92,-24.12 85.08,-24.12 85.08,-24.12 88.04,-24.12 91,-27.08 91,-30.04 91,-30.04 91,-35.96 91,-35.96 91,-38.92 88.04,-41.88 85.08,-41.88"/>
<text xml:space="preserve" text-anchor="start" x="32" y="-29.32" font-family="Helvetica,sans-Serif" font-size="9.00">mesh&#45;utils.ts</text>
</a>
</g>
</g>
<!-- src/renderer/mesh&#45;utils.ts&#45;&gt;src/renderer/webgpu.renderer.ts -->
<g id="edge5" class="edge">
<title>src/renderer/mesh&#45;utils.ts&#45;&gt;src/renderer/webgpu.renderer.ts</title>
<path fill="none" stroke="#000000" stroke-width="2" stroke-opacity="0.200000" d="M87.18,-42.33C95.51,-45.04 104.73,-48.04 113.51,-50.89"/>
<polygon fill="#000000" fill-opacity="0.200000" stroke="#000000" stroke-width="2" stroke-opacity="0.200000" points="112.85,-52.88 119.21,-52.74 114.15,-48.89 112.85,-52.88"/>
</g>
</g>
</svg>
