<?xml version="1.0" encoding="UTF-8" standalone="no"?>
<!DOCTYPE svg PUBLIC "-//W3C//DTD SVG 1.1//EN"
 "http://www.w3.org/Graphics/SVG/1.1/DTD/svg11.dtd">
<!-- Generated by graphviz version 14.0.0 (20250921.2048)
 -->
<!-- Title: dependency&#45;cruiser output Pages: 1 -->
<svg width="445pt" height="184pt"
 viewBox="0.00 0.00 445.00 184.00" xmlns="http://www.w3.org/2000/svg" xmlns:xlink="http://www.w3.org/1999/xlink">
<g id="graph0" class="graph" transform="scale(1 1) rotate(0) translate(4 180)">
<title>dependency&#45;cruiser output</title>
<polygon fill="white" stroke="none" points="-4,4 -4,-180 440.75,-180 440.75,4 -4,4"/>
<g id="clust1" class="cluster">
<title>cluster_src</title>
<path fill="#ffffff" stroke="black" stroke-width="2" d="M20,-8C20,-8 416.75,-8 416.75,-8 422.75,-8 428.75,-14 428.75,-20 428.75,-20 428.75,-156 428.75,-156 428.75,-162 422.75,-168 416.75,-168 416.75,-168 20,-168 20,-168 14,-168 8,-162 8,-156 8,-156 8,-20 8,-20 8,-14 14,-8 20,-8"/>
<text xml:space="preserve" text-anchor="middle" x="218.38" y="-155.45" font-family="Helvetica,sans-Serif" font-weight="bold" font-size="9.00">src</text>
</g>
<g id="clust2" class="cluster">
<title>cluster_src/engine</title>
<path fill="#ffffff" stroke="black" stroke-width="2" d="M242.75,-90C242.75,-90 289,-90 289,-90 295,-90 301,-96 301,-102 301,-102 301,-130 301,-130 301,-136 295,-142 289,-142 289,-142 242.75,-142 242.75,-142 236.75,-142 230.75,-136 230.75,-130 230.75,-130 230.75,-102 230.75,-102 230.75,-96 236.75,-90 242.75,-90"/>
<text xml:space="preserve" text-anchor="middle" x="265.88" y="-129.45" font-family="Helvetica,sans-Serif" font-weight="bold" font-size="9.00">engine</text>
</g>
<g id="clust3" class="cluster">
<title>cluster_src/renderer</title>
<path fill="#ffffff" stroke="black" stroke-width="2" d="M28,-16C28,-16 408.75,-16 408.75,-16 414.75,-16 420.75,-22 420.75,-28 420.75,-28 420.75,-70 420.75,-70 420.75,-76 414.75,-82 408.75,-82 408.75,-82 28,-82 28,-82 22,-82 16,-76 16,-70 16,-70 16,-28 16,-28 16,-22 22,-16 28,-16"/>
<text xml:space="preserve" text-anchor="middle" x="218.38" y="-69.45" font-family="Helvetica,sans-Serif" font-weight="bold" font-size="9.00">renderer</text>
</g>
<g id="clust4" class="cluster">
<title>cluster_src/utils</title>
<path fill="#ffffff" stroke="black" stroke-width="2" d="M344.12,-90C344.12,-90 400.88,-90 400.88,-90 406.88,-90 412.88,-96 412.88,-102 412.88,-102 412.88,-130 412.88,-130 412.88,-136 406.88,-142 400.88,-142 400.88,-142 344.12,-142 344.12,-142 338.12,-142 332.12,-136 332.12,-130 332.12,-130 332.12,-102 332.12,-102 332.12,-96 338.12,-90 344.12,-90"/>
<text xml:space="preserve" text-anchor="middle" x="372.5" y="-129.45" font-family="Helvetica,sans-Serif" font-weight="bold" font-size="9.00">utils</text>
</g>
<!-- src/engine/entities.ts -->
<g id="node1" class="node">
<title>src/engine/entities.ts</title>
<g id="a_node1"><a xlink:href="src/engine/entities.ts" xlink:title="entities.ts">
<path fill="#ddfeff" stroke="black" d="M287.08,-115.88C287.08,-115.88 244.67,-115.88 244.67,-115.88 241.71,-115.88 238.75,-112.92 238.75,-109.96 238.75,-109.96 238.75,-104.04 238.75,-104.04 238.75,-101.08 241.71,-98.12 244.67,-98.12 244.67,-98.12 287.08,-98.12 287.08,-98.12 290.04,-98.12 293,-101.08 293,-104.04 293,-104.04 293,-109.96 293,-109.96 293,-112.92 290.04,-115.88 287.08,-115.88"/>
<text xml:space="preserve" text-anchor="start" x="246.75" y="-103.33" font-family="Helvetica,sans-Serif" font-size="9.00">entities.ts</text>
</a>
</g>
</g>
<!-- src/utils/math&#45;utils.ts -->
<g id="node2" class="node">
<title>src/utils/math&#45;utils.ts</title>
<g id="a_node2"><a xlink:href="src/utils/math-utils.ts" xlink:title="math&#45;utils.ts">
<path fill="#ddfeff" stroke="black" d="M398.96,-115.88C398.96,-115.88 346.04,-115.88 346.04,-115.88 343.08,-115.88 340.12,-112.92 340.12,-109.96 340.12,-109.96 340.12,-104.04 340.12,-104.04 340.12,-101.08 343.08,-98.12 346.04,-98.12 346.04,-98.12 398.96,-98.12 398.96,-98.12 401.92,-98.12 404.88,-101.08 404.88,-104.04 404.88,-104.04 404.88,-109.96 404.88,-109.96 404.88,-112.92 401.92,-115.88 398.96,-115.88"/>
<text xml:space="preserve" text-anchor="start" x="348.12" y="-103.33" font-family="Helvetica,sans-Serif" font-size="9.00">math&#45;utils.ts</text>
</a>
</g>
</g>
<!-- src/engine/entities.ts&#45;&gt;src/utils/math&#45;utils.ts -->
<g id="edge1" class="edge">
<title>src/engine/entities.ts&#45;&gt;src/utils/math&#45;utils.ts</title>
<path fill="none" stroke="#000000" stroke-width="2" stroke-opacity="0.200000" d="M293.28,-107C304.67,-107 318.27,-107 330.9,-107"/>
<polygon fill="#000000" fill-opacity="0.200000" stroke="#000000" stroke-width="2" stroke-opacity="0.200000" points="330.86,-109.1 336.86,-107 330.86,-104.9 330.86,-109.1"/>
</g>
<!-- src/renderer/gpu&#45;buffer&#45;manager.ts -->
<g id="node3" class="node">
<title>src/renderer/gpu&#45;buffer&#45;manager.ts</title>
<g id="a_node3"><a xlink:href="src/renderer/gpu-buffer-manager.ts" xlink:title="gpu&#45;buffer&#45;manager.ts">
<path fill="#ddfeff" stroke="black" d="M313.33,-41.88C313.33,-41.88 218.42,-41.88 218.42,-41.88 215.46,-41.88 212.5,-38.92 212.5,-35.96 212.5,-35.96 212.5,-30.04 212.5,-30.04 212.5,-27.08 215.46,-24.12 218.42,-24.12 218.42,-24.12 313.33,-24.12 313.33,-24.12 316.29,-24.12 319.25,-27.08 319.25,-30.04 319.25,-30.04 319.25,-35.96 319.25,-35.96 319.25,-38.92 316.29,-41.88 313.33,-41.88"/>
<text xml:space="preserve" text-anchor="start" x="220.5" y="-29.32" font-family="Helvetica,sans-Serif" font-size="9.00">gpu&#45;buffer&#45;manager.ts</text>
</a>
</g>
</g>
<!-- src/renderer/mesh&#45;registry.ts -->
<g id="node4" class="node">
<title>src/renderer/mesh&#45;registry.ts</title>
<g id="a_node4"><a xlink:href="src/renderer/mesh-registry.ts" xlink:title="mesh&#45;registry.ts">
<path fill="#ddfeff" stroke="black" d="M406.83,-48.88C406.83,-48.88 338.17,-48.88 338.17,-48.88 335.21,-48.88 332.25,-45.92 332.25,-42.96 332.25,-42.96 332.25,-37.04 332.25,-37.04 332.25,-34.08 335.21,-31.12 338.17,-31.12 338.17,-31.12 406.83,-31.12 406.83,-31.12 409.79,-31.12 412.75,-34.08 412.75,-37.04 412.75,-37.04 412.75,-42.96 412.75,-42.96 412.75,-45.92 409.79,-48.88 406.83,-48.88"/>
<text xml:space="preserve" text-anchor="start" x="340.25" y="-36.33" font-family="Helvetica,sans-Serif" font-size="9.00">mesh&#45;registry.ts</text>
</a>
</g>
</g>
<!-- src/renderer/gpu&#45;buffer&#45;manager.ts&#45;&gt;src/renderer/mesh&#45;registry.ts -->
<g id="edge2" class="edge">
<title>src/renderer/gpu&#45;buffer&#45;manager.ts&#45;&gt;src/renderer/mesh&#45;registry.ts</title>
<path fill="none" stroke="#000000" stroke-width="2" stroke-opacity="0.200000" d="M319.49,-36.52C320.67,-36.6 321.84,-36.68 323.01,-36.76"/>
<polygon fill="#000000" fill-opacity="0.200000" stroke="#000000" stroke-width="2" stroke-opacity="0.200000" points="322.75,-38.84 328.88,-37.15 323.03,-34.65 322.75,-38.84"/>
</g>
<!-- src/renderer/mesh&#45;utils.ts -->
<g id="node5" class="node">
<title>src/renderer/mesh&#45;utils.ts</title>
<g id="a_node5"><a xlink:href="src/renderer/mesh-utils.ts" xlink:title="mesh&#45;utils.ts">
<path fill="#ddfeff" stroke="black" d="M85.08,-55.88C85.08,-55.88 29.92,-55.88 29.92,-55.88 26.96,-55.88 24,-52.92 24,-49.96 24,-49.96 24,-44.04 24,-44.04 24,-41.08 26.96,-38.12 29.92,-38.12 29.92,-38.12 85.08,-38.12 85.08,-38.12 88.04,-38.12 91,-41.08 91,-44.04 91,-44.04 91,-49.96 91,-49.96 91,-52.92 88.04,-55.88 85.08,-55.88"/>
<text xml:space="preserve" text-anchor="start" x="32" y="-43.33" font-family="Helvetica,sans-Serif" font-size="9.00">mesh&#45;utils.ts</text>
</a>
</g>
</g>
<!-- src/renderer/webgpu.renderer.ts -->
<g id="node6" class="node">
<title>src/renderer/webgpu.renderer.ts</title>
<g id="a_node6"><a xlink:href="src/renderer/webgpu.renderer.ts" xlink:title="webgpu.renderer.ts">
<path fill="#ddfeff" stroke="black" d="M193.58,-55.88C193.58,-55.88 109.92,-55.88 109.92,-55.88 106.96,-55.88 104,-52.92 104,-49.96 104,-49.96 104,-44.04 104,-44.04 104,-41.08 106.96,-38.12 109.92,-38.12 109.92,-38.12 193.58,-38.12 193.58,-38.12 196.54,-38.12 199.5,-41.08 199.5,-44.04 199.5,-44.04 199.5,-49.96 199.5,-49.96 199.5,-52.92 196.54,-55.88 193.58,-55.88"/>
<text xml:space="preserve" text-anchor="start" x="112" y="-43.33" font-family="Helvetica,sans-Serif" font-size="9.00">webgpu.renderer.ts</text>
</a>
</g>
</g>
<!-- src/renderer/mesh&#45;utils.ts&#45;&gt;src/renderer/webgpu.renderer.ts -->
<g id="edge3" class="edge">
<title>src/renderer/mesh&#45;utils.ts&#45;&gt;src/renderer/webgpu.renderer.ts</title>
<path fill="none" stroke="#000000" stroke-width="2" stroke-opacity="0.200000" d="M91.28,-47C92.42,-47 93.57,-47 94.72,-47"/>
<polygon fill="#000000" fill-opacity="0.200000" stroke="#000000" stroke-width="2" stroke-opacity="0.200000" points="94.68,-49.1 100.68,-47 94.68,-44.9 94.68,-49.1"/>
</g>
<!-- src/renderer/webgpu.renderer.ts&#45;&gt;src/engine/entities.ts -->
<g id="edge4" class="edge">
<title>src/renderer/webgpu.renderer.ts&#45;&gt;src/engine/entities.ts</title>
<path fill="none" stroke="#000000" stroke-opacity="0.200000" d="M165.66,-56.11C177.51,-64.25 195.73,-76.22 212.5,-85 219.12,-88.46 226.41,-91.8 233.39,-94.79"/>
<polygon fill="none" stroke="#000000" stroke-opacity="0.200000" points="232.49,-96.69 238.83,-97.07 234.11,-92.81 232.49,-96.69"/>
</g>
<!-- src/renderer/webgpu.renderer.ts&#45;&gt;src/renderer/gpu&#45;buffer&#45;manager.ts -->
<g id="edge5" class="edge">
<title>src/renderer/webgpu.renderer.ts&#45;&gt;src/renderer/gpu&#45;buffer&#45;manager.ts</title>
<path fill="none" stroke="#000000" stroke-width="2" stroke-opacity="0.200000" d="M199.98,-41.1C201.12,-40.96 202.27,-40.82 203.42,-40.67"/>
<polygon fill="#000000" fill-opacity="0.200000" stroke="#000000" stroke-width="2" stroke-opacity="0.200000" points="203.59,-42.77 209.28,-39.94 203.07,-38.6 203.59,-42.77"/>
</g>
<!-- src/renderer/webgpu.renderer.ts&#45;&gt;src/renderer/mesh&#45;registry.ts -->
<g id="edge6" class="edge">
<title>src/renderer/webgpu.renderer.ts&#45;&gt;src/renderer/mesh&#45;registry.ts</title>
<path fill="none" stroke="#000000" stroke-width="2" stroke-opacity="0.200000" d="M199.83,-49.33C233.21,-50.49 279.04,-51.06 319.25,-48 320.54,-47.9 321.84,-47.79 323.15,-47.67"/>
<polygon fill="#000000" fill-opacity="0.200000" stroke="#000000" stroke-width="2" stroke-opacity="0.200000" points="323.17,-49.78 328.91,-47.04 322.72,-45.6 323.17,-49.78"/>
</g>
</g>
</svg>
